<svg xmlns="http://www.w3.org/2000/svg" viewBox="0 0 64 64">
  <g fill="black">
    <rect x="30.75" y="4" width="2.5" height="10" rx="1.25"/>
    <circle cx="32" cy="4" r="3"/>
    <path d="M18 14h28a8 8 0 0 1 8 8v20a8 8 0 0 1-8 8H18a8 8 0 0 1-8-8V22a8 8 0 0 1 8-8Zm4 7a9 9 0 1 0 0 18 9 9 0 0 0 0-18Zm20 0a9 9 0 1 0 0 18 9 9 0 0 0 0-18Zm-10 7a2 2 0 0 0 0 4 2 2 0 0 0 0-4ZM26 40.75a1.25 1.25 0 1 0 0 2.5h12a1.25 1.25 0 1 0 0-2.5H26Zm2 3a1.25 1.25 0 1 0 0 2.5h8a1.25 1.25 0 1 0 0-2.5h-8Z" fill-rule="evenodd"/>
    <circle cx="22" cy="30" r="4"/>
    <circle cx="42" cy="30" r="4"/>
    <path d="M14 54h2v4a2 2 0 0 0 2 2h28a2 2 0 0 0 2-2v-4h2v4a4 4 0 0 1-4 4H18a4 4 0 0 1-4-4v-4Z"/>
  </g>
</svg>
